<svg id="Layer_1" data-name="Layer 1" xmlns="http://www.w3.org/2000/svg" xmlns:xlink="http://www.w3.org/1999/xlink" viewBox="0 0 6421.2 1544.67"><defs><style>.cls-1{fill:#fff200;}.cls-2{fill:url(#linear-gradient);}.cls-3{fill:#fff;}</style><linearGradient id="linear-gradient" x1="701.86" y1="574.95" x2="2009.03" y2="136.42" gradientTransform="matrix(0.86, 0, 0, -0.86, 141.93, 1533.82)" gradientUnits="userSpaceOnUse"><stop offset="0" stop-color="#00aeef"/><stop offset="0.38" stop-color="#02adee"/><stop offset="0.51" stop-color="#09a9eb"/><stop offset="0.61" stop-color="#14a3e5"/><stop offset="0.69" stop-color="#2599dd"/><stop offset="0.76" stop-color="#3b8dd2"/><stop offset="0.82" stop-color="#577ec5"/><stop offset="0.87" stop-color="#776cb5"/><stop offset="0.92" stop-color="#9d57a3"/><stop offset="0.96" stop-color="#c6408f"/><stop offset="1" stop-color="#ee2a7b"/></linearGradient></defs><path class="cls-1" d="M226.89,421.06c0-44.9,34.51-73.86,79-73.86s79,29,79,73.86c0,43.14-34.52,73.87-79,73.87S226.89,464.2,226.89,421.06Zm20.93,212.75H362.15v675.65H247.82Z" transform="translate(-85.4 -60.54)"/><path class="cls-2" d="M396.39,1587.51l22.37-87.29c17.7,5.56,40.38,11.86,64.09,11.86,67.61,0,83.55-50.63,83.55-132.73V627.84H680.73v752c0,138.1-50.62,225.41-185.32,225.41C454.31,1605.21,419.94,1596.87,396.39,1587.51ZM545.47,415.11c0-44.91,34.52-73.85,79-73.85s79,28.95,79,73.85c0,43.14-34.52,73.85-79,73.85S545.47,458.25,545.47,415.11Z" transform="translate(-85.4 -60.54)"/><path class="cls-1" d="M396.39,1587.51l22.37-87.29c17.7,5.56,40.38,11.86,64.09,11.86,67.61,0,83.55-50.63,83.55-132.73V627.84H680.73v752c0,138.1-50.62,225.41-185.32,225.41C454.31,1605.21,419.94,1596.87,396.39,1587.51ZM545.47,415.11c0-44.91,34.52-73.85,79-73.85s79,28.95,79,73.85c0,43.14-34.52,73.85-79,73.85S545.47,458.25,545.47,415.11Z" transform="translate(-85.4 -60.54)"/><path class="cls-1" d="M456.46,60.54c237.47,0,374,157.61,374,337.27,0,104-44.52,170.2-89.05,220.64l-32.65-31.52c44.52-50.43,80.15-110.32,80.15-189.12C788.92,237.06,652.37,111,456.46,111S127,224.45,127,397.81c0,85.1,38.58,157.6,86.08,211.18L180.4,637.36c-53.43-63-95-141.84-95-239.55C85.42,205.54,222,60.54,456.46,60.54Z" transform="translate(-85.4 -60.54)"/><path class="cls-3" d="M1081.1,150.36h97.07v762.8H1081.1Z" transform="translate(-85.4 -60.54)"/><path class="cls-3" d="M1386.76,150.36h238.9c155.36,0,266.93,55.79,266.93,214.69,0,152.35-111.57,225.69-266.93,225.69H1483.82V913.17h-97.06V150.36Zm225,361.65c118.7,0,184-48.09,184-147,0-100.34-65.34-136-184-136H1483.82V512Zm-5.2,52.14,76.06-50.23,232.74,399.24h-110Z" transform="translate(-85.4 -60.54)"/><path class="cls-3" d="M2048.05,150.36H2488v82.15H2145.12V489.75h290.71v82.16H2145.12V913.17h-97.06V150.36Z" transform="translate(-85.4 -60.54)"/><path class="cls-3" d="M2779,150.36h109.53l258,762.8H3043.8l-133-426c-27.41-85.28-51.88-169-76.35-257h-4.64c-23.62,88.46-48.1,171.77-75.51,257.05l-134.48,426H2521Zm-122.38,453h351.23v77.45H2656.66Z" transform="translate(-85.4 -60.54)"/><path class="cls-3" d="M3254.43,150.36h100.25l276.08,479.55,82.34,157.93h4.64c-4.88-77-12.34-162.94-12.34-242.7V150.36h92.18v762.8H3697.33l-276.08-480-82.34-157.51h-4.64c4.89,77.2,12.34,158.53,12.34,238.29V913.16h-92.18Z" transform="translate(-85.4 -60.54)"/><path class="cls-3" d="M4171.18,805.45l68.71-49c34.39,60.57,77.46,85.29,132,85.29,81.38,0,121.89-46.14,121.89-162V150.36h97.06V688.69c0,132-60.78,238.42-210.15,238.42C4284,927.1,4215.21,885,4171.18,805.45Z" transform="translate(-85.4 -60.54)"/><path class="cls-3" d="M4953.56,150.36h109.53l258,762.8H5218.31l-133-426c-27.41-85.28-51.89-169-76.35-257h-4.65c-23.61,88.46-48.09,171.77-75.5,257.05l-134.49,426h-98.77Zm-122.39,453h351.24v77.45H4831.17Z" transform="translate(-85.4 -60.54)"/><path class="cls-3" d="M5552.63,617.55l-229.27-467.2H5427l98.39,215.35C5549.9,421.91,5572.89,475,5599.26,532h4.65c26.36-57.07,52.73-110.11,76.17-166.32l98.38-215.35H5879l-229.27,467.2V913.16h-97.06V617.55Z" transform="translate(-85.4 -60.54)"/><path class="cls-3" d="M6139,150.36h109.53l258,762.8H6403.78l-133-426c-27.41-85.28-51.89-169-76.35-257h-4.65c-23.61,88.46-48.09,171.77-75.5,257.05l-134.49,426H5881Zm-122.39,453h351.24v77.45H6016.64V603.33Z" transform="translate(-85.4 -60.54)"/><path class="cls-1" d="M1538.72,1471.52c-10.69,36.67-30.56,91.67-42,115.36-22.16,4.58-81.75,18.33-139.81,18.33-182.59,0-275.79-121.47-275.79-255.16,0-155.85,118.41-263.57,289.54-263.57,65.7,0,119.18,13.75,144.39,17.57,3.06,34.38,8.4,80.22,14.52,118.42l-23.69,5.35c-15.28-51.19-33.61-82.51-72.57-98.56-19.87-9.16-51.19-14.51-80.22-14.51-126,0-192.52,93.2-192.52,219.26,0,147.44,76.4,242.17,200.16,242.17,77.92,0,116.12-35.9,155.08-112.3Z" transform="translate(-85.4 -60.54)"/><path class="cls-1" d="M1871.79,1086.48c130.63,0,247.52,100.08,247.52,252.11,0,164.25-111.54,266.62-252.11,266.62-146.68,0-253.63-111.54-253.63-255.16C1613.57,1213.3,1710.59,1086.48,1871.79,1086.48Zm-15.28,28.27c-85.57,0-163.49,71.81-163.49,214.67,0,142.1,77.92,246.76,186.41,246.76,92.44,0,162-68.76,162-216.2C2041.39,1199.55,1956.59,1114.75,1856.51,1114.75Z" transform="translate(-85.4 -60.54)"/><path class="cls-1" d="M2462.31,1086.48c130.64,0,247.52,100.08,247.52,252.11,0,164.25-111.54,266.62-252.11,266.62-146.68,0-253.63-111.54-253.63-255.16C2204.09,1213.3,2301.11,1086.48,2462.31,1086.48ZM2447,1114.75c-85.56,0-163.49,71.81-163.49,214.67,0,142.1,77.93,246.76,186.41,246.76,92.44,0,162-68.76,162-216.2C2631.91,1199.55,2547.11,1114.75,2447,1114.75Z" transform="translate(-85.4 -60.54)"/><path class="cls-1" d="M3167.42,1466.94c-4.58,23.68-27.5,103.13-35.14,126.81H2777v-21.39c69.52-6.87,75.63-10.69,75.63-75.63V1193.44c0-64.94-7.64-68.76-68.75-74.87v-21.39h204.74v21.39c-61.12,6.11-69.52,9.17-69.52,74.87v310.93c0,46.6,6.11,57.3,49.65,58.06.77,0,55.77.76,60.36.76,39,0,50.42-4.58,68-23.68,19.1-19.86,35.14-50.42,46.6-78.69Z" transform="translate(-85.4 -60.54)"/><path class="cls-1" d="M3601.35,1466.94c-4.59,23.68-27.51,103.13-35.15,126.81H3211v-21.39c69.52-6.87,75.63-10.69,75.63-75.63V1193.44c0-64.94-7.64-68.76-68.75-74.87v-21.39h204.74v21.39c-61.12,6.11-69.52,9.17-69.52,74.87v310.93c0,46.6,6.11,57.3,49.65,58.06.77,0,55.77.76,60.36.76,39,0,50.42-4.58,68-23.68,19.1-19.86,35.14-50.42,46.6-78.69Z" transform="translate(-85.4 -60.54)"/><path class="cls-1" d="M4048.25,1472.28c-4.58,19.87-25.21,98.55-32.85,121.47H3644.12v-21.39c71.05-5.35,76.39-12.22,76.39-74.87V1195.73c0-68-8.4-71.81-65.7-77.16v-21.39h233.78c71.81,0,101.6-.77,110.77-1.53.76,19.1,3.82,76.4,6.88,116.89l-22.92,3.82c-6.88-26-14.52-42-22.92-58.07-12.23-25.21-29.8-30.55-75.63-30.55h-72.58c-23.68,0-25.21,2.29-25.21,24.44V1321h84.8c57.3,0,61.12-11.46,70.28-63.41h23.69V1415h-23.69c-9.93-55-16-62.65-71-62.65h-84v152c0,53.48,16.81,58.06,55,58.82H3913c46.6,0,54.24-6.87,71-26.73,14.52-16,30.56-47.37,41.25-70.29Z" transform="translate(-85.4 -60.54)"/><path class="cls-1" d="M4560.1,1471.52c-10.7,36.67-30.56,91.67-42,115.36-22.16,4.58-81.75,18.33-139.81,18.33-182.58,0-275.79-121.47-275.79-255.16,0-155.85,118.42-263.57,289.54-263.57,65.7,0,119.18,13.75,144.39,17.57,3.06,34.38,8.41,80.22,14.52,118.42l-23.68,5.35c-15.28-51.19-33.62-82.51-72.58-98.56-19.86-9.16-51.19-14.51-80.22-14.51-126.05,0-192.52,93.2-192.52,219.26,0,147.44,76.4,242.17,200.16,242.17,77.93,0,116.12-35.9,155.09-112.3Z" transform="translate(-85.4 -60.54)"/><path class="cls-1" d="M5036,1217.12c-6.88-24.45-16.05-49.66-24.45-63.41-12.22-20.63-19.86-26-61.88-26h-76.4v372c0,59.59,6.12,68,78.69,72.57v21.39H4729.68v-21.39c71-4.58,77.16-12.22,77.16-72.57v-372h-69.52c-42,0-54.24,4.58-67.23,27.5-9.17,15.28-15.28,33.61-25.21,61.88H4622c4.58-46.6,9.17-94.73,11.46-137.51H4651c11.46,18.33,19.86,17.57,41.25,17.57h302.53c21.39,0,27.51-3.06,39-17.57h18.33c0,35.9,3.06,90.91,6.88,135.22Z" transform="translate(-85.4 -60.54)"/><path class="cls-1" d="M5121.58,1593.75v-21.39c62.65-6.87,68.76-9.93,68.76-74.87V1194.2c0-65.7-6.11-68.76-68.76-75.63v-21.39h204.74v21.39c-63.41,6.87-69.52,9.93-69.52,75.63v303.29c0,65.7,6.11,68,69.52,74.87v21.39Z" transform="translate(-85.4 -60.54)"/><path class="cls-1" d="M5657.1,1086.48c130.64,0,247.53,100.08,247.53,252.11,0,164.25-111.54,266.62-252.11,266.62-146.68,0-253.64-111.54-253.64-255.16C5398.88,1213.3,5495.91,1086.48,5657.1,1086.48Zm-15.28,28.27c-85.56,0-163.48,71.81-163.48,214.67,0,142.1,77.92,246.76,186.4,246.76,92.44,0,162-68.76,162-216.2C5826.7,1199.55,5741.9,1114.75,5641.82,1114.75Z" transform="translate(-85.4 -60.54)"/><path class="cls-1" d="M6506.61,1118.57c-48.9,5.35-64.94,13-67.23,48.13-.77,24.45-2.29,56.53-2.29,127.58v306.35h-29l-327-399.55v191c0,68.75,2.29,103.13,3.82,125.29,1.53,39,20.63,50.42,75.63,55v21.39H5974.89v-21.39c47.36-3.82,65.7-15.28,68.76-52.71,2.29-24.45,3.82-58.83,3.82-128.35V1196.49c0-21.39-1.53-33.61-15.28-50.42-14.52-19.1-30.56-23.68-68-27.5v-21.39h114.6l323.92,384.27V1294.28c0-71-1.53-103.9-3.82-126.82-2.29-34.38-19.86-45.07-81-48.89v-21.39h188.7Z" transform="translate(-85.4 -60.54)"/></svg>